<?xml version="1.0" encoding="utf-8"?>
<!-- Generator: Adobe Illustrator 24.1.0, SVG Export Plug-In . SVG Version: 6.00 Build 0)  -->
<svg version="1.1" id="Livello_1" xmlns="http://www.w3.org/2000/svg" xmlns:xlink="http://www.w3.org/1999/xlink" x="0px" y="0px"
	 viewBox="0 0 1080 1080" style="enable-background:new 0 0 1080 1080;" xml:space="preserve">
<style type="text/css">
	.st0{opacity:0.8;fill:#FFFFFF;stroke:#FFFFFF;stroke-miterlimit:10;enable-background:new    ;}
	.st1{opacity:0.8;fill:none;stroke:#FFFFFF;stroke-width:27;enable-background:new    ;}
</style>
<path class="st0" d="M382.5,493.7h80.8c-9.3-152.5,59.9-183,211.9-161.1v75.5c-26.6-4.9-63.8-10.3-88.3,4.2
	c-21.9,10.6-13.7,60.9-15.2,81.4h92.2v72.1h-92.2v366.3H463.3V565.8h-80.8V493.7z"/>
<path class="st1" d="M294,159.5h487c75.4,0,136.5,61.1,136.5,136.5v487c0,75.4-61.1,136.5-136.5,136.5H294
	c-75.4,0-136.5-61.1-136.5-136.5V296C157.5,220.6,218.6,159.5,294,159.5z"/>
</svg>
