<?xml version="1.0" encoding="utf-8"?>
<!-- Generator: Adobe Illustrator 24.1.0, SVG Export Plug-In . SVG Version: 6.00 Build 0)  -->
<svg version="1.1" id="Livello_1" xmlns="http://www.w3.org/2000/svg" xmlns:xlink="http://www.w3.org/1999/xlink" x="0px" y="0px"
	 viewBox="0 0 787.5 789.5" style="enable-background:new 0 0 787.5 789.5;" xml:space="preserve">
<style type="text/css">
	.st0{opacity:0.8;}
	.st1{fill:none;stroke:#FFFFFF;stroke-width:27;}
	.st2{fill:#FFFFFF;stroke:#FFFFFF;stroke-miterlimit:10;}
</style>
<g id="Livello_2_1_" class="st0">
	<g id="Livello_1-2">
		<path class="st1" d="M150.2,16.5h487c75.4,0,136.5,61.1,136.5,136.5l0,0v487c0,75.4-61.1,136.5-136.5,136.5l0,0h-487
			c-75.4,0-136.5-61.1-136.5-136.5l0,0V153C13.7,77.6,74.8,16.5,150.2,16.5L150.2,16.5z"/>
		<path class="st2" d="M220.4,229h57v54h-57V229z M220.4,327.5h57V586h-57V327.5z M339.5,327.5h54v38l1,1c8.2-13.9,20-25.5,34-33.5
			c14.1-8.3,30.1-12.7,46.5-12.5c28.3,0,50.7,7.3,67,22s24.5,36.7,24.5,66V586h-57V423.5c-0.7-20.3-5-35-13-44
			c-8-9.3-20.5-14-37.5-14c-9-0.2-17.9,1.7-26,5.5c-7.5,3.2-14.2,8.2-19.5,14.5c-5.5,6.3-9.8,13.6-12.5,21.5
			c-3,8.5-4.6,17.5-4.5,26.5V586h-57V327.5z"/>
	</g>
</g>
</svg>
