<?xml version="1.0" encoding="utf-8"?>
<!-- Generator: Adobe Illustrator 24.1.0, SVG Export Plug-In . SVG Version: 6.00 Build 0)  -->
<svg version="1.1" id="Livello_1" xmlns="http://www.w3.org/2000/svg" xmlns:xlink="http://www.w3.org/1999/xlink" x="0px" y="0px"
	 viewBox="0 0 1080 1080" style="enable-background:new 0 0 1080 1080;" xml:space="preserve">
<style type="text/css">
	.st0{opacity:0.8;fill:none;stroke:#FFFFFF;stroke-width:27;enable-background:new    ;}
	.st1{opacity:0.8;fill:none;stroke:#FFFFFF;stroke-width:27;stroke-opacity:0.7;enable-background:new    ;}
	
		.st2{opacity:0.8;fill:none;stroke:#FFFFFF;stroke-width:27;stroke-linecap:round;stroke-linejoin:round;enable-background:new    ;}
</style>
<path class="st0" d="M537.5,159.5L537.5,159.5c209.9,0,380,170.1,380,380l0,0c0,209.9-170.1,380-380,380l0,0
	c-209.9,0-380-170.1-380-380l0,0C157.5,329.6,327.6,159.5,537.5,159.5z"/>
<line class="st1" x1="319" y1="662.5" x2="761" y2="663.5"/>
<line class="st1" x1="315" y1="418.5" x2="757" y2="419.5"/>
<line class="st2" x1="761.5" y1="661.9" x2="761.5" y2="418.5"/>
<line class="st2" x1="316.5" y1="661.9" x2="316.5" y2="418.5"/>
<line class="st2" x1="317.8" y1="419.9" x2="534.7" y2="571.2"/>
<line class="st2" x1="539.4" y1="572" x2="756.3" y2="420.7"/>
</svg>
