<?xml version="1.0" encoding="utf-8"?>
<!-- Generator: Adobe Illustrator 24.1.0, SVG Export Plug-In . SVG Version: 6.00 Build 0)  -->
<svg version="1.1" id="Livello_1" xmlns="http://www.w3.org/2000/svg" xmlns:xlink="http://www.w3.org/1999/xlink" x="0px" y="0px"
	 viewBox="0 0 1080 1080" style="enable-background:new 0 0 1080 1080;" xml:space="preserve">
<style type="text/css">
	.st0{opacity:0.8;}
	.st1{fill-rule:evenodd;clip-rule:evenodd;fill:#FFFFFF;stroke:#FFFFFF;stroke-miterlimit:10;}
	.st2{fill:none;stroke:#FFFFFF;stroke-width:26;stroke-linecap:round;stroke-linejoin:round;}
</style>
<g class="st0">
	<path class="st1" d="M463.9,503.1c29.7,52.3,77.3,93.5,131.3,118.7l38-45.5c5.2-6.2,12.5-8.7,18.3-5.2c21,6.2,43.5,8.5,67.7,6.7
		c11.2-0.8,19.1,6.4,19.9,18l4.4,65.8c0.8,11.6-6.1,19.9-17.3,20.7c-174.7,12.7-325.9-124-338.1-305.8c-0.8-11.6,6.1-19.9,17.3-20.7
		l65.1-4.7c11.2-0.8,19.1,6.4,19.9,18c1.6,23.2,6.8,46.2,15.8,68.8c2.2,5.7,0.9,13.5-2.4,19.6L463.9,503.1z"/>
	<path class="st2" d="M415.8,851.5c-2.8-1.5-6-1.8-9-0.8c-55.4,16.9-98.7,28-132.2,34.4c-33.6,6.5-56.5,8.1-71.4,6.4
		c-15.3-1.7-18.8-6.2-19.7-8.2c-1.3-2.9-1.6-9,2.9-20.8c4.3-11.2,11.7-24.3,20.7-38.8c3.5-5.7,7.3-11.7,11.2-17.8
		c5.7-9,11.5-18.2,16.7-26.9c8.9-14.9,17.2-30.3,21.9-44.6c4.6-14,6.9-29.8-0.2-43.6c-27.6-53.4-43.2-114.4-43.2-179.3
		c0-209.6,163.2-379.4,364.6-379.4S942.7,302,942.7,511.5S779.4,890.9,578,890.9C519.7,890.9,464.7,876.7,415.8,851.5z"/>
</g>
</svg>
